<svg width="118" height="26" viewBox="0 0 118 26" fill="none" xmlns="http://www.w3.org/2000/svg">
<path d="M17.6573 22.2573L17.6411 12.9967H9.23559V16.3847H13.1238L13.1076 20.644C12.9893 20.7838 12.8118 20.9182 12.5752 21.0473C12.3493 21.1656 12.0858 21.2732 11.7847 21.37C11.4835 21.4668 11.1608 21.5421 10.8167 21.5958C10.4725 21.6496 10.1229 21.6765 9.76799 21.6765C9.18719 21.6657 8.66554 21.5743 8.20304 21.4022C7.75131 21.2194 7.35335 20.9559 7.00917 20.6117C6.80481 20.4073 6.61659 20.1761 6.4445 19.918C6.28316 19.6491 6.13796 19.3587 6.00889 19.0467C5.80453 18.509 5.6432 17.8905 5.52489 17.1914C5.41733 16.4923 5.36355 15.7179 5.36355 14.8682V11.6415C5.36355 10.9639 5.4012 10.3347 5.47649 9.75386C5.56253 9.17306 5.68084 8.64603 5.83142 8.17278C6.02503 7.55971 6.26703 7.0273 6.55743 6.57557C6.85859 6.12383 7.19201 5.75814 7.55771 5.47849C7.83735 5.27413 8.13851 5.11818 8.46118 5.01062C8.78385 4.90306 9.11728 4.84928 9.46146 4.84928C10.096 4.84928 10.6392 4.93533 11.0909 5.10742C11.5534 5.26875 11.9353 5.51613 12.2364 5.84956C12.5053 6.15072 12.715 6.52179 12.8656 6.96277C13.027 7.40375 13.1453 7.90927 13.2206 8.47932H17.6411C17.5228 7.34997 17.2701 6.33356 16.8829 5.43009C16.5064 4.52661 15.9794 3.75758 15.3018 3.123C14.6242 2.49917 13.7906 2.02055 12.8011 1.68712C11.8223 1.3537 10.6715 1.18698 9.34852 1.18698C8.48807 1.18698 7.67064 1.3053 6.89623 1.54192C6.12183 1.77854 5.40658 2.1281 4.75048 2.5906C4.19119 2.99931 3.67492 3.48332 3.20167 4.04261C2.73917 4.6019 2.33046 5.23111 1.97552 5.93023C1.59907 6.71539 1.30867 7.59198 1.10431 8.55998C0.899956 9.51724 0.797778 10.5552 0.797778 11.6737V14.8682C0.797778 16.0405 0.899956 17.1269 1.10431 18.1271C1.31943 19.1274 1.63134 20.0255 2.04006 20.8214C2.39499 21.5421 2.82522 22.182 3.33073 22.7413C3.84701 23.3006 4.41706 23.7739 5.04088 24.1611C5.67547 24.5375 6.36921 24.8225 7.1221 25.0161C7.88575 25.2205 8.69781 25.3227 9.55826 25.3227C10.5478 25.3227 11.4728 25.2312 12.3332 25.0484C13.1937 24.8656 13.9735 24.6236 14.6726 24.3224C15.3609 24.032 15.9579 23.7039 16.4634 23.3383C16.9689 22.9726 17.3669 22.6122 17.6573 22.2573ZM22.707 7.54357V11.2059H27.6762V21.3538H22.707V25H36.9368V21.3538H32.2097V7.54357H22.707ZM27.3535 3.0746C27.3535 3.41878 27.4126 3.74145 27.531 4.04261C27.66 4.33301 27.8375 4.58039 28.0634 4.78475C28.2892 4.99986 28.5581 5.16658 28.87 5.28489C29.1927 5.4032 29.5476 5.46236 29.9348 5.46236C30.7308 5.46236 31.36 5.24187 31.8225 4.80088C32.2957 4.34915 32.5323 3.77372 32.5323 3.0746C32.5323 2.37548 32.2957 1.80543 31.8225 1.36445C31.36 0.912715 30.7308 0.686846 29.9348 0.686846C29.5476 0.686846 29.1927 0.746002 28.87 0.864314C28.5581 0.982626 28.2892 1.14396 28.0634 1.34832C27.8375 1.56343 27.66 1.82157 27.531 2.12273C27.4126 2.41313 27.3535 2.73042 27.3535 3.0746ZM49.5854 3.2682H45.1003V7.54357H41.1153V10.8509H45.1003V18.7886C45.1003 19.9395 45.2509 20.929 45.5521 21.7572C45.8532 22.5746 46.2834 23.2468 46.8427 23.7739C47.3913 24.3116 48.0527 24.7096 48.8271 24.9677C49.6123 25.2151 50.4835 25.3388 51.4408 25.3388C51.9355 25.3388 52.4357 25.3119 52.9412 25.2581C53.4575 25.2151 53.9522 25.1506 54.4255 25.0645C54.8987 24.9785 55.3451 24.8709 55.7645 24.7419C56.184 24.602 56.5497 24.4407 56.8616 24.2579L56.426 21.1764C56.2217 21.2301 55.9743 21.2839 55.6839 21.3377C55.4042 21.3915 55.1031 21.4399 54.7804 21.4829C54.447 21.5367 54.0974 21.5797 53.7317 21.612C53.3768 21.6442 53.0272 21.6604 52.6831 21.6604C52.2098 21.6604 51.7796 21.6066 51.3924 21.499C51.0159 21.3915 50.6933 21.2086 50.4244 20.9505C50.1555 20.7031 49.9457 20.3697 49.7952 19.9502C49.6553 19.52 49.5854 18.9876 49.5854 18.353V10.8509H56.1033V7.54357H49.5854V3.2682ZM75.9475 15.2715V11.5931H65.8802V5.20422H77.2059V1.50965H61.3306V25H65.8802V15.2715H75.9475ZM91.9519 25H96.5016V24.7257C96.2757 24.2847 96.1036 23.7577 95.9853 23.1446C95.867 22.5316 95.8078 21.7572 95.8078 20.8214V13.3355C95.8078 12.3245 95.6196 11.4371 95.2432 10.6735C94.8667 9.89906 94.3451 9.2591 93.6782 8.75359C93.0114 8.24807 92.2208 7.86624 91.3066 7.60811C90.4031 7.34997 89.4244 7.22091 88.3703 7.22091C87.1979 7.22091 86.1546 7.37148 85.2404 7.67264C84.3369 7.96305 83.5733 8.361 82.9495 8.86652C82.3149 9.37204 81.8309 9.95822 81.4974 10.6251C81.1748 11.2919 81.0134 11.9964 81.0134 12.7386H85.4986C85.4986 12.4266 85.5416 12.1416 85.6276 11.8835C85.7244 11.6253 85.8696 11.4049 86.0632 11.222C86.2783 11.0177 86.558 10.8617 86.9022 10.7541C87.2463 10.6358 87.6551 10.5767 88.1283 10.5767C88.6661 10.5767 89.134 10.6466 89.5319 10.7864C89.9406 10.9155 90.2794 11.1037 90.5483 11.3511C90.8065 11.5877 91.0001 11.8727 91.1291 12.2062C91.2582 12.5288 91.3227 12.8945 91.3227 13.3032V14.3358H88.822C87.5314 14.3358 86.3859 14.4541 85.3856 14.6907C84.3961 14.9166 83.5625 15.25 82.8849 15.691C82.132 16.175 81.5674 16.7934 81.1909 17.5463C80.8145 18.2885 80.6262 19.1435 80.6262 20.1116C80.6262 20.8645 80.7768 21.5636 81.078 22.2089C81.3791 22.8435 81.7986 23.392 82.3364 23.8545C82.8742 24.317 83.5141 24.6773 84.2563 24.9355C85.0092 25.1936 85.832 25.3227 86.7247 25.3227C87.2732 25.3227 87.7841 25.2689 88.2574 25.1613C88.7306 25.0645 89.1662 24.9247 89.5642 24.7419C89.9514 24.5698 90.3063 24.3654 90.629 24.1288C90.9517 23.8922 91.2367 23.6394 91.4841 23.3705C91.5378 23.6824 91.6024 23.9782 91.6777 24.2579C91.753 24.5375 91.8444 24.7849 91.9519 25ZM87.6766 21.854C87.2571 21.854 86.886 21.8056 86.5634 21.7088C86.2514 21.6012 85.9879 21.4614 85.7728 21.2893C85.5577 21.1065 85.391 20.886 85.2727 20.6278C85.1651 20.3589 85.1113 20.0685 85.1113 19.7566C85.1113 19.3587 85.1866 18.993 85.3372 18.6595C85.4878 18.3154 85.719 18.0196 86.031 17.7722C86.3429 17.5356 86.7462 17.3527 87.241 17.2237C87.7357 17.0838 88.3327 17.0139 89.0318 17.0139H91.3227V20.0148C91.1937 20.2406 91.0162 20.4665 90.7903 20.6924C90.5645 20.9075 90.2956 21.1011 89.9837 21.2732C89.6717 21.4453 89.3222 21.5851 88.935 21.6926C88.5478 21.8002 88.1283 21.854 87.6766 21.854ZM106.44 25H110.651L117.282 7.54357H112.603L108.779 19.8534L108.537 21.0796L108.295 19.8534L104.455 7.54357H99.7767L106.44 25Z" fill="white"/>
</svg>
